<svg xmlns="http://www.w3.org/2000/svg" xmlns:xlink="http://www.w3.org/1999/xlink" width="40" height="40"><defs><path id="a" d="M0 0h17v11H0z"/></defs><g fill="none" fill-rule="evenodd"><path fill="#F94F0D" d="M4.333 11.667h30.593a1 1 0 011 1v23a1 1 0 01-1 1H4.333a1 1 0 01-1-1v-23a1 1 0 011-1z"/><path fill="#1B1B1B" d="M12.592 19.259h14.815v10.37H12.592zm7.395-15.941c5.487 0 8.013 6.19 8.842 11.259h-.007l.007.038c.037.423-.25.8-.654.887l-.104.016a.835.835 0 01-.903-.758l.001.016c-.749-4.187-2.776-9.74-7.182-9.74-4.409 0-6.412 5.552-7.146 9.744l-.013-.002a.832.832 0 11-1.654-.199l-.028-.002c.83-5.07 3.354-11.259 8.841-11.259z"/><g><g transform="translate(11 19)"><mask id="b" fill="#fff"><use xlink:href="#a"/></mask><path fill="#F94F0D" d="M0 11h17V0H0z" mask="url(#b)"/></g><path fill="#FFFFFE" d="M11.398 29.566h16.204V19.434H11.398z"/><path fill="#000002" d="M11.797 29.132h15.406v-9.264H11.797z"/><path fill="#FFFFFE" d="M13.657 27.395v.07h-.225v.509h-.079v-.51h-.228v-.07h.531zm10.2 0c.2 0 .265.158.265.29 0 .131-.066.289-.264.289s-.267-.158-.267-.29c0-.131.069-.29.267-.29zm1.027 0l.136.51h.004l.142-.51h.09l.143.51.14-.51h.07l-.164.579h-.093l-.14-.51h-.002l-.143.51h-.093l-.161-.58h.071zm-4.695 0c.198 0 .268.158.268.29 0 .131-.07.289-.268.289s-.264-.158-.264-.29c0-.131.066-.29.264-.29zm-5.649 0c.117 0 .241.033.249.161h-.087c-.008-.077-.087-.099-.177-.099-.083 0-.151.04-.151.1 0 .029.019.062.09.073l.208.032c.094.015.136.067.136.136 0 .11-.102.176-.268.176-.162 0-.256-.059-.264-.18h.087c0 .074.071.118.18.118.118 0 .182-.044.182-.106 0-.15-.434-.015-.434-.242 0-.107.094-.17.249-.17zm.97 0v.342c0 .105.065.173.183.173s.182-.068.182-.173v-.341h.084v.335c0 .161-.11.244-.266.244-.156 0-.266-.083-.266-.244v-.335h.084zm3.284 0l.175.51.173-.51h.093v.579h-.059v-.52l-.175.52h-.061l-.178-.52h-.003v.52h-.056v-.58h.09zm3.87 0c.127 0 .222.066.23.158h-.085c-.014-.07-.077-.096-.148-.096-.123 0-.211.074-.211.227 0 .154.088.228.211.228.07 0 .14-.033.155-.106h.084c-.017.12-.126.168-.257.168-.186 0-.274-.14-.274-.29 0-.131.074-.29.296-.29zm-5.996 0l.175.51.174-.51h.093v.579h-.059v-.52l-.177.52h-.06l-.177-.52h-.003v.52h-.056v-.58h.09zm4.743 0c.117 0 .241.033.252.161h-.086c-.008-.077-.09-.099-.181-.099-.08 0-.147.04-.147.1 0 .029.019.062.087.073l.21.032c.091.015.132.067.132.136 0 .11-.098.176-.267.176-.158 0-.252-.059-.264-.18h.087c.004.074.075.118.18.118.121 0 .185-.044.185-.106 0-.15-.433-.015-.433-.242 0-.107.09-.17.245-.17zm2.447.062c-.117 0-.195.092-.195.227 0 .136.078.228.195.228.113 0 .192-.092.192-.228 0-.135-.079-.227-.192-.227zm-3.669 0c-.113 0-.191.092-.191.227 0 .136.078.228.191.228.117 0 .195-.092.195-.228 0-.135-.078-.227-.195-.227zm-3.135-6.141v4.342H16.9v-4.342h.154zm4.515 0v4.342h-.154v-4.342h.154zm-7.848.579v.13h-.327v2.905h1.322v-2.904h-.327v-.131h1.127v.13h-.33v2.905h.33v.439h-.047v-.008c0-.121-.088-.276-.204-.298l-.027-.002h-2.644v-.131h.327v-2.904h-.327v-.131h1.127zm10.301.29l.669 2.103.656-2.104h.794v.12h-.3v2.656h.3v.12h-1.067v-.12h.319v-2.504h-.006l-.785 2.504h-.175l-.8-2.457h-.006v2.128c0 .26.032.329.213.329h.134v.12h-.75v-.12h.088c.17 0 .208-.061.212-.285v-2.371h-.3v-.12h.803zm-5.342 0v.121h-.135c-.115 0-.16.039-.16.104 0 .067.023.14.073.266l.02.05.63 1.616.917-2.036h-.299v-.122h1.101v.123h-.288l-1.197 2.654h.299v.118h-1.099v-.118h.29l.214-.482-.77-1.957c-.041-.105-.08-.199-.19-.213l-.032-.003h-.147v-.122h.773z"/><path fill="#F94F0D" d="M17.641 27.974h.531v-.579h-.531z"/></g></g></svg>
